<svg width="45" height="45" viewBox="0 0 45 45" fill="none" xmlns="http://www.w3.org/2000/svg">
<path d="M30.375 21.9365C30.375 21.489 30.1972 21.0597 29.8807 20.7433C29.5643 20.4268 29.1351 20.249 28.6875 20.249C28.2399 20.249 27.8107 20.4268 27.4943 20.7433C27.1778 21.0597 27 21.489 27 21.9365V26.4365C27 26.8841 27.1778 27.3133 27.4943 27.6298C27.8107 27.9462 28.2399 28.124 28.6875 28.124C29.1351 28.124 29.5643 27.9462 29.8807 27.6298C30.1972 27.3133 30.375 26.8841 30.375 26.4365V21.9365Z" fill="#C293FE"/>
<path d="M21.9365 20.249C22.3841 20.249 22.8133 20.4268 23.1298 20.7433C23.4462 21.0597 23.624 21.489 23.624 21.9365V26.4365C23.624 26.8841 23.4462 27.3133 23.1298 27.6298C22.8133 27.9462 22.3841 28.124 21.9365 28.124C21.489 28.124 21.0597 27.9462 20.7433 27.6298C20.4268 27.3133 20.249 26.8841 20.249 26.4365V21.9365C20.249 21.489 20.4268 21.0597 20.7433 20.7433C21.0597 20.4268 21.489 20.249 21.9365 20.249Z" fill="#C293FE"/>
<path d="M16.876 21.9365C16.876 21.489 16.6982 21.0597 16.3817 20.7433C16.0653 20.4268 15.636 20.249 15.1885 20.249C14.7409 20.249 14.3117 20.4268 13.9952 20.7433C13.6788 21.0597 13.501 21.489 13.501 21.9365V26.4365C13.501 26.8841 13.6788 27.3133 13.9952 27.6298C14.3117 27.9462 14.7409 28.124 15.1885 28.124C15.636 28.124 16.0653 27.9462 16.3817 27.6298C16.6982 27.3133 16.876 26.8841 16.876 26.4365V21.9365Z" fill="#C293FE"/>
<path d="M8.4375 30.376C8.88505 30.376 9.31428 30.5538 9.63074 30.8702C9.94721 31.1867 10.125 31.6159 10.125 32.0635V37.6885C10.125 38.136 9.94721 38.5653 9.63074 38.8817C9.31428 39.1982 8.88505 39.376 8.4375 39.376C7.98995 39.376 7.56072 39.1982 7.24426 38.8817C6.92779 38.5653 6.75 38.136 6.75 37.6885V32.0635C6.75 31.6159 6.92779 31.1867 7.24426 30.8702C7.56072 30.5538 7.98995 30.376 8.4375 30.376Z" fill="#C293FE"/>
<path d="M38.25 32.0635C38.25 31.6159 38.0722 31.1867 37.7557 30.8702C37.4393 30.5538 37.0101 30.376 36.5625 30.376C36.1149 30.376 35.6857 30.5538 35.3693 30.8702C35.0528 31.1867 34.875 31.6159 34.875 32.0635V37.6885C34.875 38.136 35.0528 38.5653 35.3693 38.8817C35.6857 39.1982 36.1149 39.376 36.5625 39.376C37.0101 39.376 37.4393 39.1982 37.7557 38.8817C38.0722 38.5653 38.25 38.136 38.25 37.6885V32.0635Z" fill="#C293FE"/>
<path d="M21.9375 0H30.375C30.6734 0 30.9595 0.118527 31.1705 0.329505C31.3815 0.540484 31.5 0.826631 31.5 1.125V5.625C31.5 5.92337 31.3815 6.20952 31.1705 6.4205C30.9595 6.63147 30.6734 6.75 30.375 6.75H23.625V9.0405C27.5972 9.32495 31.3142 11.1036 34.0277 14.0184C36.7413 16.9331 38.2499 20.7676 38.25 24.75H39.9375C41.2802 24.75 42.5678 25.2834 43.5172 26.2328C44.4666 27.1822 45 28.4698 45 29.8125V43.3125C45 43.7601 44.8222 44.1893 44.5057 44.5057C44.1893 44.8222 43.7601 45 43.3125 45H1.6875C1.23995 45 0.810725 44.8222 0.494257 44.5057C0.177789 44.1893 0 43.7601 0 43.3125V29.8125C0 28.4698 0.533369 27.1822 1.48277 26.2328C2.43217 25.2834 3.71984 24.75 5.0625 24.75H6.75C6.74996 20.9622 8.11458 17.3012 10.5939 14.4376C13.0732 11.574 16.5012 9.69954 20.25 9.1575V1.6875C20.25 1.23995 20.4278 0.810725 20.7443 0.494257C21.0607 0.177789 21.4899 0 21.9375 0ZM22.5 12.375C19.2179 12.375 16.0703 13.6788 13.7496 15.9996C11.4288 18.3203 10.125 21.4679 10.125 24.75V26.4375C10.125 26.8851 9.94721 27.3143 9.63074 27.6307C9.31428 27.9472 8.88505 28.125 8.4375 28.125H5.0625C4.61495 28.125 4.18572 28.3028 3.86926 28.6193C3.55279 28.9357 3.375 29.3649 3.375 29.8125V41.625H16.875V35.4375C16.875 34.9899 17.0528 34.5607 17.3693 34.2443C17.6857 33.9278 18.1149 33.75 18.5625 33.75H26.4375C26.8851 33.75 27.3143 33.9278 27.6307 34.2443C27.9472 34.5607 28.125 34.9899 28.125 35.4375V41.625H41.625V29.8125C41.625 29.3649 41.4472 28.9357 41.1307 28.6193C40.8143 28.3028 40.3851 28.125 39.9375 28.125H36.5625C36.1149 28.125 35.6857 27.9472 35.3693 27.6307C35.0528 27.3143 34.875 26.8851 34.875 26.4375V24.75C34.875 21.4679 33.5712 18.3203 31.2504 15.9996C28.9297 13.6788 25.7821 12.375 22.5 12.375ZM24.75 37.125H20.25V41.625H24.75V37.125Z" fill="#C293FE"/>
</svg>
