<svg width="106" height="47" viewBox="0 0 106 47" fill="none" xmlns="http://www.w3.org/2000/svg">
<path d="M18.9893 21.0835V23H6.95312V21.0835H18.9893ZM18.5986 6.93555L7.51465 23H6.06201V21.2422L17.1338 5.22656H18.5986V6.93555ZM17.5977 5.22656V7.15527H6.2207V5.22656H17.5977ZM26.9238 23.2441C26.0042 23.2441 25.1701 23.0895 24.4214 22.7803C23.6808 22.4629 23.042 22.0194 22.5049 21.4497C21.9759 20.88 21.569 20.2046 21.2842 19.4233C20.9993 18.6421 20.8569 17.7876 20.8569 16.8599V16.3472C20.8569 15.2729 21.0156 14.3167 21.333 13.4785C21.6504 12.6322 22.0817 11.916 22.627 11.3301C23.1722 10.7441 23.7907 10.3006 24.4824 9.99951C25.1742 9.6984 25.8903 9.54785 26.6309 9.54785C27.5749 9.54785 28.3887 9.71061 29.0723 10.0361C29.764 10.3617 30.3296 10.8174 30.769 11.4033C31.2085 11.9811 31.534 12.6647 31.7456 13.4541C31.9572 14.2354 32.063 15.0898 32.063 16.0176V17.0308H22.1997V15.1875H29.8047V15.0166C29.7721 14.4307 29.6501 13.861 29.4385 13.3076C29.235 12.7542 28.9095 12.2985 28.4619 11.9404C28.0143 11.5824 27.404 11.4033 26.6309 11.4033C26.1182 11.4033 25.6462 11.5132 25.2148 11.7329C24.7835 11.9445 24.4132 12.2619 24.104 12.6851C23.7948 13.1082 23.5547 13.625 23.3838 14.2354C23.2129 14.8457 23.1274 15.5496 23.1274 16.3472V16.8599C23.1274 17.4865 23.2129 18.0765 23.3838 18.6299C23.5628 19.1751 23.8192 19.6553 24.1528 20.0703C24.4946 20.4854 24.9056 20.8109 25.3857 21.0469C25.874 21.2829 26.4274 21.4009 27.0459 21.4009C27.8434 21.4009 28.5189 21.2381 29.0723 20.9126C29.6257 20.5871 30.1099 20.1517 30.5249 19.6064L31.8921 20.6929C31.6073 21.1242 31.2451 21.5352 30.8057 21.9258C30.3662 22.3164 29.825 22.6338 29.1821 22.8779C28.5474 23.1221 27.7946 23.2441 26.9238 23.2441ZM36.958 12.6118V23H34.6997V9.79199H36.8359L36.958 12.6118ZM36.4209 15.8955L35.481 15.8589C35.4891 14.9556 35.6234 14.1214 35.8838 13.3564C36.1442 12.5833 36.5104 11.9119 36.9824 11.3423C37.4544 10.7726 38.016 10.3332 38.667 10.0239C39.3262 9.70654 40.0545 9.54785 40.8521 9.54785C41.5031 9.54785 42.089 9.63737 42.6099 9.81641C43.1307 9.9873 43.5742 10.264 43.9404 10.6465C44.3148 11.029 44.5996 11.5254 44.7949 12.1357C44.9902 12.738 45.0879 13.4744 45.0879 14.3452V23H42.8174V14.3208C42.8174 13.6291 42.7157 13.0757 42.5122 12.6606C42.3088 12.2375 42.0117 11.9323 41.6211 11.7451C41.2305 11.5498 40.7503 11.4521 40.1807 11.4521C39.6191 11.4521 39.1064 11.5701 38.6426 11.8062C38.1868 12.0422 37.7922 12.3677 37.4585 12.7827C37.133 13.1978 36.8766 13.6738 36.6895 14.2109C36.5104 14.7399 36.4209 15.3014 36.4209 15.8955Z" fill="#91A1F5"/>
<path d="M53.5352 17.6289L57.063 5.22656H58.772L57.7832 10.0483L53.9868 23H52.29L53.5352 17.6289ZM49.8853 5.22656L52.6929 17.3848L53.5352 23H51.8506L47.5415 5.22656H49.8853ZM63.3374 17.3726L66.084 5.22656H68.4399L64.1431 23H62.4585L63.3374 17.3726ZM59.0283 5.22656L62.4585 17.6289L63.7036 23H62.0068L58.3447 10.0483L57.3438 5.22656H59.0283ZM69.7217 16.5425V16.2617C69.7217 15.3096 69.86 14.4266 70.1367 13.6128C70.4134 12.7909 70.8122 12.0788 71.333 11.4766C71.8538 10.8662 72.4845 10.3942 73.2251 10.0605C73.9657 9.71875 74.7957 9.54785 75.7153 9.54785C76.6431 9.54785 77.4772 9.71875 78.2178 10.0605C78.9665 10.3942 79.6012 10.8662 80.1221 11.4766C80.651 12.0788 81.0539 12.7909 81.3306 13.6128C81.6073 14.4266 81.7456 15.3096 81.7456 16.2617V16.5425C81.7456 17.4946 81.6073 18.3776 81.3306 19.1914C81.0539 20.0052 80.651 20.7173 80.1221 21.3276C79.6012 21.9299 78.9705 22.4019 78.23 22.7437C77.4976 23.0773 76.6675 23.2441 75.7397 23.2441C74.812 23.2441 73.9779 23.0773 73.2373 22.7437C72.4967 22.4019 71.862 21.9299 71.333 21.3276C70.8122 20.7173 70.4134 20.0052 70.1367 19.1914C69.86 18.3776 69.7217 17.4946 69.7217 16.5425ZM71.98 16.2617V16.5425C71.98 17.2017 72.0573 17.8242 72.2119 18.4102C72.3665 18.988 72.5985 19.5007 72.9077 19.9482C73.2251 20.3958 73.6198 20.7498 74.0918 21.0103C74.5638 21.2625 75.1131 21.3887 75.7397 21.3887C76.3582 21.3887 76.8994 21.2625 77.3633 21.0103C77.8353 20.7498 78.2259 20.3958 78.5352 19.9482C78.8444 19.5007 79.0763 18.988 79.231 18.4102C79.3937 17.8242 79.4751 17.2017 79.4751 16.5425V16.2617C79.4751 15.6107 79.3937 14.9963 79.231 14.4185C79.0763 13.8325 78.8403 13.3158 78.5229 12.8682C78.2137 12.4124 77.8231 12.0544 77.3511 11.7939C76.8872 11.5335 76.342 11.4033 75.7153 11.4033C75.0968 11.4033 74.5516 11.5335 74.0796 11.7939C73.6157 12.0544 73.2251 12.4124 72.9077 12.8682C72.5985 13.3158 72.3665 13.8325 72.2119 14.4185C72.0573 14.9963 71.98 15.6107 71.98 16.2617ZM86.8359 11.8672V23H84.5776V9.79199H86.7749L86.8359 11.8672ZM90.9619 9.71875L90.9497 11.8184C90.7625 11.7777 90.5835 11.7533 90.4126 11.7451C90.2498 11.7288 90.0627 11.7207 89.8511 11.7207C89.3302 11.7207 88.8704 11.8021 88.4717 11.9648C88.0729 12.1276 87.7352 12.3555 87.4585 12.6484C87.1818 12.9414 86.9621 13.2913 86.7993 13.6982C86.6447 14.097 86.543 14.5365 86.4941 15.0166L85.8594 15.3828C85.8594 14.5853 85.9367 13.8366 86.0913 13.1367C86.2541 12.4368 86.5023 11.8184 86.8359 11.2812C87.1696 10.736 87.5928 10.3128 88.1055 10.0117C88.6263 9.70247 89.2448 9.54785 89.9609 9.54785C90.1237 9.54785 90.3109 9.5682 90.5225 9.60889C90.734 9.64144 90.8805 9.67806 90.9619 9.71875ZM95.3198 4.25V23H93.0493V4.25H95.3198ZM103.389 9.79199L97.627 15.9565L94.4043 19.3013L94.2212 16.8965L96.5283 14.1377L100.63 9.79199H103.389ZM101.326 23L96.6138 16.7012L97.7856 14.687L103.987 23H101.326Z" fill="white"/>
<path d="M1 29C1 29 33.4273 46.6934 55.8009 45.9789C76.0942 45.3309 105 29 105 29" stroke="url(#paint0_linear_58_36966)" stroke-width="2" stroke-linejoin="round"/>
<defs>
<linearGradient id="paint0_linear_58_36966" x1="105" y1="29" x2="-4.11565" y2="26.8303" gradientUnits="userSpaceOnUse">
<stop stop-color="#8739E4"/>
<stop offset="0.482292" stop-color="#6226A3"/>
<stop offset="1" stop-color="#E0F0FF"/>
</linearGradient>
</defs>
</svg>
