<svg width="41" height="45" viewBox="0 0 41 45" fill="none" xmlns="http://www.w3.org/2000/svg">
<path d="M20.4536 12.2725C21.5833 12.2725 22.499 11.3567 22.499 10.2271C22.499 9.0974 21.5833 8.18164 20.4536 8.18164C19.324 8.18164 18.4082 9.0974 18.4082 10.2271C18.4082 11.3567 19.324 12.2725 20.4536 12.2725Z" fill="#8E83DD"/>
<path d="M8.18164 32.7266H32.7266V36.8174H8.18164V32.7266Z" fill="#8E83DD"/>
<path d="M16.3633 22.1523L22.0741 27.8672L30.1166 19.8185L32.7266 22.5V14.3184H24.5449L27.2244 16.9263L22.072 22.0786L16.3633 16.3638L8.18164 24.5454L11.0739 27.4376L16.3633 22.1523Z" fill="#8E83DD"/>
<path d="M34.772 4.0918H28.0262C27.8254 3.78937 27.6068 3.49909 27.3717 3.2225L27.3512 3.19795C25.8484 1.4476 23.734 0.337005 21.44 0.0930206C20.7886 -0.0310069 20.1196 -0.0310069 19.4682 0.0930206C17.1742 0.337005 15.0598 1.4476 13.557 3.19795L13.5365 3.2225C13.3014 3.49843 13.0829 3.78802 12.882 4.08975V4.0918H6.13623C4.5093 4.09342 2.94947 4.74044 1.79905 5.89085C0.64864 7.04127 0.0016245 8.6011 0 10.228V38.8638C0.0016245 40.4907 0.64864 42.0505 1.79905 43.2009C2.94947 44.3514 4.5093 44.9984 6.13623 45H34.772C36.3989 44.9984 37.9587 44.3514 39.1091 43.2009C40.2596 42.0505 40.9066 40.4907 40.9082 38.8638V10.228C40.9066 8.6011 40.2596 7.04127 39.1091 5.89085C37.9587 4.74044 36.3989 4.09342 34.772 4.0918ZM36.8174 38.8638C36.8174 39.4062 36.6019 39.9265 36.2183 40.3101C35.8347 40.6937 35.3144 40.9092 34.772 40.9092H6.13623C5.59392 40.9086 5.07398 40.693 4.69051 40.3095C4.30703 39.926 4.09136 39.4061 4.09082 38.8638V10.228C4.09136 9.68572 4.30703 9.16577 4.69051 8.7823C5.07398 8.39883 5.59392 8.18316 6.13623 8.18262H15.4428C15.6776 7.02667 16.3047 5.98741 17.218 5.24093C18.1313 4.49446 19.2746 4.08667 20.4541 4.08667C21.6336 4.08667 22.7769 4.49446 23.6902 5.24093C24.6035 5.98741 25.2306 7.02667 25.4654 8.18262H34.772C35.3143 8.18316 35.8342 8.39883 36.2177 8.7823C36.6012 9.16577 36.8168 9.68572 36.8174 10.228V38.8638Z" fill="#8E83DD"/>
</svg>
