<svg width="45" height="45" viewBox="0 0 45 45" fill="none" xmlns="http://www.w3.org/2000/svg">
<path fill-rule="evenodd" clip-rule="evenodd" d="M41.25 2.5H3.75C3.41848 2.5 3.10054 2.6317 2.86612 2.86612C2.6317 3.10054 2.5 3.41848 2.5 3.75V41.25C2.5 41.5815 2.6317 41.8995 2.86612 42.1339C3.10054 42.3683 3.41848 42.5 3.75 42.5H41.25C41.5815 42.5 41.8995 42.3683 42.1339 42.1339C42.3683 41.8995 42.5 41.5815 42.5 41.25V3.75C42.5 3.41848 42.3683 3.10054 42.1339 2.86612C41.8995 2.6317 41.5815 2.5 41.25 2.5ZM3.75 0C2.75544 0 1.80161 0.395088 1.09835 1.09835C0.395088 1.80161 0 2.75544 0 3.75V41.25C0 42.2446 0.395088 43.1984 1.09835 43.9016C1.80161 44.6049 2.75544 45 3.75 45H41.25C42.2446 45 43.1984 44.6049 43.9016 43.9016C44.6049 43.1984 45 42.2446 45 41.25V3.75C45 2.75544 44.6049 1.80161 43.9016 1.09835C43.1984 0.395088 42.2446 0 41.25 0H3.75Z" fill="#79EBB0"/>
<path d="M16.25 17.5C16.25 18.4946 15.8549 19.4484 15.1517 20.1517C14.4484 20.8549 13.4946 21.25 12.5 21.25C11.5054 21.25 10.5516 20.8549 9.84835 20.1517C9.14509 19.4484 8.75 18.4946 8.75 17.5C8.75 16.5054 9.14509 15.5516 9.84835 14.8483C10.5516 14.1451 11.5054 13.75 12.5 13.75C13.4946 13.75 14.4484 14.1451 15.1517 14.8483C15.8549 15.5516 16.25 16.5054 16.25 17.5Z" fill="#79EBB0"/>
<path fill-rule="evenodd" clip-rule="evenodd" d="M7.82098 26.55C7.55848 26.8137 7.50098 27.0112 7.50098 27.1587V31.25H5.00098V27.1587C5.00098 26.1737 5.46348 25.3775 6.04723 24.7887C6.62098 24.2125 7.35973 23.78 8.09348 23.4588C9.55348 22.8213 11.286 22.5 12.501 22.5C13.7147 22.5 15.4485 22.8213 16.9085 23.4588C17.6422 23.78 18.381 24.2125 18.9547 24.7887C19.5397 25.3775 20.001 26.1737 20.001 27.1587V31.25H17.501V27.1587C17.501 27.0112 17.4422 26.8137 17.181 26.5512C16.9085 26.2762 16.476 25.9988 15.9072 25.75C14.7647 25.25 13.3722 25 12.501 25C11.6297 25 10.2385 25.25 9.09473 25.75C8.52598 25.9975 8.09473 26.275 7.82098 26.55Z" fill="#79EBB0"/>
<path fill-rule="evenodd" clip-rule="evenodd" d="M27.82 26.55C27.5575 26.8137 27.5 27.0112 27.5 27.1587V31.25H25V27.1587C25 26.1737 25.4625 25.3775 26.0462 24.7887C26.62 24.2125 27.3588 23.78 28.0925 23.4588C29.5525 22.8213 31.2863 22.5 32.5 22.5C33.7138 22.5 35.4475 22.8213 36.9075 23.4588C37.6413 23.78 38.38 24.2125 38.9537 24.7887C39.5387 25.3775 40 26.1737 40 27.1587V31.25H37.5V27.1587C37.5 27.0112 37.4413 26.8137 37.18 26.5512C36.9075 26.2762 36.475 25.9988 35.9062 25.75C34.7637 25.25 33.3713 25 32.5 25C31.6288 25 30.2375 25.25 29.0938 25.75C28.525 25.9975 28.0938 26.275 27.82 26.55Z" fill="#79EBB0"/>
<path d="M36.249 17.5C36.249 18.4946 35.8539 19.4484 35.1507 20.1517C34.4474 20.8549 33.4936 21.25 32.499 21.25C31.5045 21.25 30.5506 20.8549 29.8474 20.1517C29.1441 19.4484 28.749 18.4946 28.749 17.5C28.749 16.5054 29.1441 15.5516 29.8474 14.8483C30.5506 14.1451 31.5045 13.75 32.499 13.75C33.4936 13.75 34.4474 14.1451 35.1507 14.8483C35.8539 15.5516 36.249 16.5054 36.249 17.5Z" fill="#79EBB0"/>
<path d="M26.249 15C26.249 15.9946 25.8539 16.9484 25.1507 17.6517C24.4474 18.3549 23.4936 18.75 22.499 18.75C21.5045 18.75 20.5506 18.3549 19.8474 17.6517C19.1441 16.9484 18.749 15.9946 18.749 15C18.749 14.0054 19.1441 13.0516 19.8474 12.3483C20.5506 11.6451 21.5045 11.25 22.499 11.25C23.4936 11.25 24.4474 11.6451 25.1507 12.3483C25.8539 13.0516 26.249 14.0054 26.249 15Z" fill="#79EBB0"/>
<path fill-rule="evenodd" clip-rule="evenodd" d="M20.8711 23.7445C20.5174 23.7795 20.3961 23.8595 20.3074 23.9582L18.4424 22.2932C19.0986 21.5582 19.9174 21.3257 20.6274 21.2557C21.0574 21.2145 21.5899 21.2295 22.0274 21.2407C22.2049 21.2457 22.3674 21.2507 22.4999 21.2507C22.6324 21.2507 22.7949 21.2457 22.9736 21.2407C23.4099 21.2282 23.9424 21.2157 24.3711 21.257C25.0836 21.3257 25.9011 21.5582 26.5574 22.2932L24.6924 23.9582C24.6049 23.8595 24.4824 23.7795 24.1286 23.7457C23.8983 23.7273 23.6671 23.7223 23.4361 23.7307L23.1836 23.737C22.9711 23.7432 22.7299 23.7507 22.4999 23.7507C22.2699 23.7507 22.0286 23.7432 21.8161 23.7382L21.5636 23.7307C21.3327 23.7219 21.1015 23.7265 20.8711 23.7445Z" fill="#79EBB0"/>
</svg>
